<?xml version="1.0" encoding="UTF-8" standalone="no"?>
<!DOCTYPE svg PUBLIC "-//W3C//DTD SVG 1.1//EN"
 "http://www.w3.org/Graphics/SVG/1.1/DTD/svg11.dtd">
<!-- Generated by graphviz version 2.40.1 (20161225.0304)
 -->
<!-- Title: state transitions Pages: 1 -->
<svg width="508pt" height="622pt"
 viewBox="0.00 0.00 508.00 622.00" xmlns="http://www.w3.org/2000/svg" xmlns:xlink="http://www.w3.org/1999/xlink">
<g id="graph0" class="graph" transform="scale(1 1) rotate(0) translate(4 618)">
<title>state transitions</title>
<polygon fill="#ffffff" stroke="transparent" points="-4,4 -4,-618 504,-618 504,4 -4,4"/>
<g id="clust1" class="cluster state regular">
<title>cluster_state</title>
<path fill="none" stroke="#000000" stroke-width="2" d="M20,-8C20,-8 480,-8 480,-8 486,-8 492,-14 492,-20 492,-20 492,-594 492,-594 492,-600 486,-606 480,-606 480,-606 20,-606 20,-606 14,-606 8,-600 8,-594 8,-594 8,-20 8,-20 8,-14 14,-8 20,-8"/>
<text text-anchor="start" x="236.9944" y="-587.2" font-family="Helvetica,sans-Serif" font-size="12.00" fill="#000000">state</text>
</g>
<!-- state -->
<!-- S_IDLE -->
<g id="node2" class="node state regular">
<title>S_IDLE</title>
<polygon fill="#ffffff" fill-opacity="0.003922" stroke="transparent" stroke-width="2" points="357.5,-568 294.5,-568 294.5,-532 357.5,-532 357.5,-568"/>
<text text-anchor="start" x="305.8276" y="-546.2" font-family="Helvetica,sans-Serif" font-size="12.00" fill="#000000">S_IDLE</text>
<path fill="none" stroke="#000000" stroke-width="2" d="M306.8333,-533C306.8333,-533 345.1667,-533 345.1667,-533 350.8333,-533 356.5,-538.6667 356.5,-544.3333 356.5,-544.3333 356.5,-555.6667 356.5,-555.6667 356.5,-561.3333 350.8333,-567 345.1667,-567 345.1667,-567 306.8333,-567 306.8333,-567 301.1667,-567 295.5,-561.3333 295.5,-555.6667 295.5,-555.6667 295.5,-544.3333 295.5,-544.3333 295.5,-538.6667 301.1667,-533 306.8333,-533"/>
</g>
<!-- S_INIT_PIXEL -->
<g id="node3" class="node state regular">
<title>S_INIT_PIXEL</title>
<polygon fill="#ffffff" fill-opacity="0.003922" stroke="transparent" stroke-width="2" points="239,-486 139,-486 139,-450 239,-450 239,-486"/>
<text text-anchor="start" x="149.9892" y="-464.2" font-family="Helvetica,sans-Serif" font-size="12.00" fill="#000000">S_INIT_PIXEL</text>
<path fill="none" stroke="#000000" stroke-width="2" d="M151.3333,-451C151.3333,-451 226.6667,-451 226.6667,-451 232.3333,-451 238,-456.6667 238,-462.3333 238,-462.3333 238,-473.6667 238,-473.6667 238,-479.3333 232.3333,-485 226.6667,-485 226.6667,-485 151.3333,-485 151.3333,-485 145.6667,-485 140,-479.3333 140,-473.6667 140,-473.6667 140,-462.3333 140,-462.3333 140,-456.6667 145.6667,-451 151.3333,-451"/>
</g>
<!-- S_IDLE&#45;&gt;S_INIT_PIXEL -->
<g id="edge1" class="edge transition">
<title>S_IDLE&#45;&gt;S_INIT_PIXEL</title>
<path fill="none" stroke="#000000" d="M295.5953,-531.8015C275.7299,-519.9113 249.597,-504.2697 228.1785,-491.4499"/>
<polygon fill="#000000" stroke="#000000" points="229.6977,-488.2802 219.3197,-486.1476 226.1027,-494.2865 229.6977,-488.2802"/>
<text text-anchor="start" x="266" y="-506" font-family="Helvetica,sans-Serif" font-size="10.00" fill="#000000">start_image_i = &#39;1&#39; &#160;&#160;</text>
</g>
<!-- S_WAIT_PIXEL -->
<g id="node4" class="node state regular">
<title>S_WAIT_PIXEL</title>
<polygon fill="#ffffff" fill-opacity="0.003922" stroke="transparent" stroke-width="2" points="309.5,-404 202.5,-404 202.5,-368 309.5,-368 309.5,-404"/>
<text text-anchor="start" x="213.8232" y="-382.2" font-family="Helvetica,sans-Serif" font-size="12.00" fill="#000000">S_WAIT_PIXEL</text>
<path fill="none" stroke="#000000" stroke-width="2" d="M214.8333,-369C214.8333,-369 297.1667,-369 297.1667,-369 302.8333,-369 308.5,-374.6667 308.5,-380.3333 308.5,-380.3333 308.5,-391.6667 308.5,-391.6667 308.5,-397.3333 302.8333,-403 297.1667,-403 297.1667,-403 214.8333,-403 214.8333,-403 209.1667,-403 203.5,-397.3333 203.5,-391.6667 203.5,-391.6667 203.5,-380.3333 203.5,-380.3333 203.5,-374.6667 209.1667,-369 214.8333,-369"/>
</g>
<!-- S_INIT_PIXEL&#45;&gt;S_WAIT_PIXEL -->
<g id="edge2" class="edge transition">
<title>S_INIT_PIXEL&#45;&gt;S_WAIT_PIXEL</title>
<path fill="none" stroke="#000000" d="M203.8695,-449.8015C212.8907,-438.7606 224.5549,-424.4851 234.5618,-412.2378"/>
<polygon fill="#000000" stroke="#000000" points="237.5552,-414.1059 241.1721,-404.1476 232.1345,-409.6768 237.5552,-414.1059"/>
<text text-anchor="middle" x="227.3895" y="-424" font-family="Helvetica,sans-Serif" font-size="10.00" fill="#000000"> </text>
</g>
<!-- S_AXI_WRITE -->
<g id="node5" class="node state regular">
<title>S_AXI_WRITE</title>
<polygon fill="#ffffff" fill-opacity="0.003922" stroke="transparent" stroke-width="2" points="343.5,-322 242.5,-322 242.5,-286 343.5,-286 343.5,-322"/>
<text text-anchor="start" x="253.8286" y="-300.2" font-family="Helvetica,sans-Serif" font-size="12.00" fill="#000000">S_AXI_WRITE</text>
<path fill="none" stroke="#000000" stroke-width="2" d="M254.8333,-287C254.8333,-287 331.1667,-287 331.1667,-287 336.8333,-287 342.5,-292.6667 342.5,-298.3333 342.5,-298.3333 342.5,-309.6667 342.5,-309.6667 342.5,-315.3333 336.8333,-321 331.1667,-321 331.1667,-321 254.8333,-321 254.8333,-321 249.1667,-321 243.5,-315.3333 243.5,-309.6667 243.5,-309.6667 243.5,-298.3333 243.5,-298.3333 243.5,-292.6667 249.1667,-287 254.8333,-287"/>
</g>
<!-- S_WAIT_PIXEL&#45;&gt;S_AXI_WRITE -->
<g id="edge3" class="edge transition">
<title>S_WAIT_PIXEL&#45;&gt;S_AXI_WRITE</title>
<path fill="none" stroke="#000000" d="M264.2115,-367.8015C269.0497,-357.0791 275.2644,-343.306 280.6805,-331.3026"/>
<polygon fill="#000000" stroke="#000000" points="283.8888,-332.7022 284.8115,-322.1476 277.5082,-329.8231 283.8888,-332.7022"/>
<text text-anchor="start" x="276" y="-342" font-family="Helvetica,sans-Serif" font-size="10.00" fill="#000000">seq_ready_i = &#39;1&#39; &#160;&#160;</text>
</g>
<!-- S_AXI_WAIT_RESP -->
<g id="node6" class="node state regular">
<title>S_AXI_WAIT_RESP</title>
<polygon fill="#ffffff" fill-opacity="0.003922" stroke="transparent" stroke-width="2" points="196,-240 64,-240 64,-204 196,-204 196,-240"/>
<text text-anchor="start" x="74.989" y="-218.2" font-family="Helvetica,sans-Serif" font-size="12.00" fill="#000000">S_AXI_WAIT_RESP</text>
<path fill="none" stroke="#000000" stroke-width="2" d="M76.3333,-205C76.3333,-205 183.6667,-205 183.6667,-205 189.3333,-205 195,-210.6667 195,-216.3333 195,-216.3333 195,-227.6667 195,-227.6667 195,-233.3333 189.3333,-239 183.6667,-239 183.6667,-239 76.3333,-239 76.3333,-239 70.6667,-239 65,-233.3333 65,-227.6667 65,-227.6667 65,-216.3333 65,-216.3333 65,-210.6667 70.6667,-205 76.3333,-205"/>
</g>
<!-- S_AXI_WRITE&#45;&gt;S_AXI_WAIT_RESP -->
<g id="edge4" class="edge transition">
<title>S_AXI_WRITE&#45;&gt;S_AXI_WAIT_RESP</title>
<path fill="none" stroke="#000000" d="M242.3088,-289.6672C236.8267,-288.3309 231.312,-287.0766 226,-286 198.9826,-280.5242 121.2278,-289.7854 103.12,-269 97.7057,-262.7851 99.1542,-255.3134 103.3994,-248.1751"/>
<polygon fill="#000000" stroke="#000000" points="106.283,-250.1623 109.4239,-240.0438 100.6585,-245.9952 106.283,-250.1623"/>
<text text-anchor="start" x="103" y="-260" font-family="Helvetica,sans-Serif" font-size="10.00" fill="#000000">(aw_done = &#39;1&#39; or m_axi_awready = &#39;1&#39;) and (w_done &#160;= &#39;1&#39; or m_axi_wready &#160;= &#39;1&#39;) &#160;&#160;</text>
</g>
<!-- S_NEXT_PIXEL -->
<g id="node7" class="node state regular">
<title>S_NEXT_PIXEL</title>
<polygon fill="#ffffff" fill-opacity="0.003922" stroke="transparent" stroke-width="2" points="133.5,-146 24.5,-146 24.5,-110 133.5,-110 133.5,-146"/>
<text text-anchor="start" x="35.8212" y="-124.2" font-family="Helvetica,sans-Serif" font-size="12.00" fill="#000000">S_NEXT_PIXEL</text>
<path fill="none" stroke="#000000" stroke-width="2" d="M36.8333,-111C36.8333,-111 121.1667,-111 121.1667,-111 126.8333,-111 132.5,-116.6667 132.5,-122.3333 132.5,-122.3333 132.5,-133.6667 132.5,-133.6667 132.5,-139.3333 126.8333,-145 121.1667,-145 121.1667,-145 36.8333,-145 36.8333,-145 31.1667,-145 25.5,-139.3333 25.5,-133.6667 25.5,-133.6667 25.5,-122.3333 25.5,-122.3333 25.5,-116.6667 31.1667,-111 36.8333,-111"/>
</g>
<!-- S_AXI_WAIT_RESP&#45;&gt;S_NEXT_PIXEL -->
<g id="edge5" class="edge transition">
<title>S_AXI_WAIT_RESP&#45;&gt;S_NEXT_PIXEL</title>
<path fill="none" stroke="#000000" d="M114.325,-203.7833C110.2681,-198.5671 106.1181,-192.7353 102.819,-187 97.2009,-177.2333 92.2785,-165.8831 88.3891,-155.7617"/>
<polygon fill="#000000" stroke="#000000" points="91.5926,-154.3319 84.8567,-146.154 85.0226,-156.7475 91.5926,-154.3319"/>
<text text-anchor="start" x="102" y="-178" font-family="Helvetica,sans-Serif" font-size="10.00" fill="#000000">m_axi_bresp = &quot;00&quot; &#160;&#160;</text>
<text text-anchor="start" x="102" y="-166" font-family="Helvetica,sans-Serif" font-size="10.00" fill="#000000">m_axi_bvalid = &#39;1&#39; &#160;&#160;</text>
</g>
<!-- S_ERROR -->
<g id="node9" class="node state regular">
<title>S_ERROR</title>
<polygon fill="#ffffff" fill-opacity="0.003922" stroke="transparent" stroke-width="2" points="264.5,-146 185.5,-146 185.5,-110 264.5,-110 264.5,-146"/>
<text text-anchor="start" x="196.5002" y="-124.2" font-family="Helvetica,sans-Serif" font-size="12.00" fill="#000000">S_ERROR</text>
<path fill="none" stroke="#000000" stroke-width="2" d="M197.8333,-111C197.8333,-111 252.1667,-111 252.1667,-111 257.8333,-111 263.5,-116.6667 263.5,-122.3333 263.5,-122.3333 263.5,-133.6667 263.5,-133.6667 263.5,-139.3333 257.8333,-145 252.1667,-145 252.1667,-145 197.8333,-145 197.8333,-145 192.1667,-145 186.5,-139.3333 186.5,-133.6667 186.5,-133.6667 186.5,-122.3333 186.5,-122.3333 186.5,-116.6667 192.1667,-111 197.8333,-111"/>
</g>
<!-- S_AXI_WAIT_RESP&#45;&gt;S_ERROR -->
<g id="edge6" class="edge transition">
<title>S_AXI_WAIT_RESP&#45;&gt;S_ERROR</title>
<path fill="none" stroke="#000000" d="M176.8194,-203.8262C184.9068,-199.2098 192.7193,-193.6317 199,-187 207.3092,-178.2265 213.234,-166.3608 217.3077,-155.5709"/>
<polygon fill="#000000" stroke="#000000" points="220.6279,-156.6784 220.5439,-146.0839 214.0028,-154.4185 220.6279,-156.6784"/>
<text text-anchor="start" x="214" y="-178" font-family="Helvetica,sans-Serif" font-size="10.00" fill="#000000">m_axi_bvalid = &#39;1&#39; &#160;&#160;</text>
<text text-anchor="start" x="214" y="-166" font-family="Helvetica,sans-Serif" font-size="10.00" fill="#000000">not (m_axi_bresp = &quot;00&quot;) &#160;&#160;</text>
</g>
<!-- S_NEXT_PIXEL&#45;&gt;S_INIT_PIXEL -->
<g id="edge7" class="edge transition">
<title>S_NEXT_PIXEL&#45;&gt;S_INIT_PIXEL</title>
<path fill="none" stroke="#000000" d="M34.933,-146.0873C24.8342,-153.2167 17,-162.7085 17,-175 17,-248.5 17,-248.5 17,-248.5 17,-286.1206 38,-292.8794 38,-330.5 38,-427 38,-427 38,-427 38,-446.7414 86.6758,-457.2825 128.7546,-462.7067"/>
<polygon fill="#000000" stroke="#000000" points="128.3706,-466.1857 138.7192,-463.9147 129.2131,-459.2366 128.3706,-466.1857"/>
<text text-anchor="start" x="37" y="-301" font-family="Helvetica,sans-Serif" font-size="10.00" fill="#000000">x_px &lt; 639 &#160;&#160;</text>
</g>
<!-- S_NEXT_PIXEL&#45;&gt;S_INIT_PIXEL -->
<g id="edge8" class="edge transition">
<title>S_NEXT_PIXEL&#45;&gt;S_INIT_PIXEL</title>
<path fill="none" stroke="#000000" d="M55.1498,-146.043C47.515,-153.9076 41,-163.8774 41,-175 41,-248.5 41,-248.5 41,-248.5 41,-279.5706 76.2838,-265.927 100,-286 120.2987,-303.1805 140,-303.9066 140,-330.5 140,-427 140,-427 140,-427 140,-432.8234 142.0608,-437.9826 145.3371,-442.5051"/>
<polygon fill="#000000" stroke="#000000" points="142.9598,-445.0858 152.3648,-449.9641 148.0547,-440.2855 142.9598,-445.0858"/>
<text text-anchor="start" x="139" y="-307" font-family="Helvetica,sans-Serif" font-size="10.00" fill="#000000">y_px &lt; 479 &#160;&#160;</text>
<text text-anchor="start" x="139" y="-295" font-family="Helvetica,sans-Serif" font-size="10.00" fill="#000000">not (x_px &lt; 639) &#160;&#160;</text>
</g>
<!-- S_FINISH -->
<g id="node8" class="node state regular">
<title>S_FINISH</title>
<polygon fill="#ffffff" fill-opacity="0.003922" stroke="transparent" stroke-width="2" points="304,-52 228,-52 228,-16 304,-16 304,-52"/>
<text text-anchor="start" x="238.9988" y="-30.2" font-family="Helvetica,sans-Serif" font-size="12.00" fill="#000000">S_FINISH</text>
<path fill="none" stroke="#000000" stroke-width="2" d="M240.3333,-17C240.3333,-17 291.6667,-17 291.6667,-17 297.3333,-17 303,-22.6667 303,-28.3333 303,-28.3333 303,-39.6667 303,-39.6667 303,-45.3333 297.3333,-51 291.6667,-51 291.6667,-51 240.3333,-51 240.3333,-51 234.6667,-51 229,-45.3333 229,-39.6667 229,-39.6667 229,-28.3333 229,-28.3333 229,-22.6667 234.6667,-17 240.3333,-17"/>
</g>
<!-- S_NEXT_PIXEL&#45;&gt;S_FINISH -->
<g id="edge9" class="edge transition">
<title>S_NEXT_PIXEL&#45;&gt;S_FINISH</title>
<path fill="none" stroke="#000000" d="M115.0555,-109.8759C145.1939,-94.7261 188.3333,-73.041 220.7814,-56.7302"/>
<polygon fill="#000000" stroke="#000000" points="222.6925,-59.6869 230.0552,-52.0685 219.5486,-53.4326 222.6925,-59.6869"/>
<text text-anchor="start" x="195" y="-84" font-family="Helvetica,sans-Serif" font-size="10.00" fill="#000000">not (x_px &lt; 639) &#160;&#160;</text>
<text text-anchor="start" x="195" y="-72" font-family="Helvetica,sans-Serif" font-size="10.00" fill="#000000">not (y_px &lt; 479) &#160;&#160;</text>
</g>
<!-- S_FINISH&#45;&gt;S_IDLE -->
<g id="edge10" class="edge transition">
<title>S_FINISH&#45;&gt;S_IDLE</title>
<path fill="none" stroke="#000000" d="M304.2957,-38.4134C366.5921,-46.1175 483,-62.931 483,-81 483,-248.5 483,-248.5 483,-248.5 483,-284.9553 481,-294.0447 481,-330.5 481,-509 481,-509 481,-509 481,-510.4709 413.3758,-527.8863 367.4616,-539.5413"/>
<polygon fill="#000000" stroke="#000000" points="366.5741,-536.1555 357.7406,-542.0052 368.294,-542.9409 366.5741,-536.1555"/>
<text text-anchor="middle" x="483.3895" y="-301" font-family="Helvetica,sans-Serif" font-size="10.00" fill="#000000"> </text>
</g>
<!-- S_ERROR&#45;&gt;S_ERROR -->
<g id="edge11" class="edge transition">
<title>S_ERROR&#45;&gt;S_ERROR</title>
<path fill="none" stroke="#000000" d="M264.6309,-132.8702C276.8806,-132.7719 286.5,-131.1484 286.5,-128 286.5,-125.7863 281.7443,-124.3265 274.6625,-123.6206"/>
<polygon fill="#000000" stroke="#000000" points="274.7901,-120.1228 264.6309,-123.1298 274.4479,-127.1144 274.7901,-120.1228"/>
<text text-anchor="middle" x="287.8895" y="-125" font-family="Helvetica,sans-Serif" font-size="10.00" fill="#000000"> </text>
</g>
</g>
</svg>
