<?xml version="1.0" encoding="UTF-8" standalone="no"?>
<!DOCTYPE svg PUBLIC "-//W3C//DTD SVG 1.1//EN"
 "http://www.w3.org/Graphics/SVG/1.1/DTD/svg11.dtd">
<!-- Generated by graphviz version 2.40.1 (20161225.0304)
 -->
<!-- Title: state transitions Pages: 1 -->
<svg width="435pt" height="352pt"
 viewBox="0.00 0.00 435.00 352.00" xmlns="http://www.w3.org/2000/svg" xmlns:xlink="http://www.w3.org/1999/xlink">
<g id="graph0" class="graph" transform="scale(1 1) rotate(0) translate(4 348)">
<title>state transitions</title>
<polygon fill="#ffffff" stroke="transparent" points="-4,4 -4,-348 431,-348 431,4 -4,4"/>
<g id="clust1" class="cluster state regular">
<title>cluster_state</title>
<path fill="none" stroke="#000000" stroke-width="2" d="M20,-8C20,-8 407,-8 407,-8 413,-8 419,-14 419,-20 419,-20 419,-324 419,-324 419,-330 413,-336 407,-336 407,-336 20,-336 20,-336 14,-336 8,-330 8,-324 8,-324 8,-20 8,-20 8,-14 14,-8 20,-8"/>
<text text-anchor="start" x="200.4944" y="-317.2" font-family="Helvetica,sans-Serif" font-size="12.00" fill="#000000">state</text>
</g>
<!-- state -->
<!-- S_IDLE -->
<g id="node2" class="node state regular">
<title>S_IDLE</title>
<polygon fill="#ffffff" fill-opacity="0.003922" stroke="transparent" stroke-width="2" points="250.5,-298 187.5,-298 187.5,-262 250.5,-262 250.5,-298"/>
<text text-anchor="start" x="198.8276" y="-276.2" font-family="Helvetica,sans-Serif" font-size="12.00" fill="#000000">S_IDLE</text>
<path fill="none" stroke="#000000" stroke-width="2" d="M199.8333,-263C199.8333,-263 238.1667,-263 238.1667,-263 243.8333,-263 249.5,-268.6667 249.5,-274.3333 249.5,-274.3333 249.5,-285.6667 249.5,-285.6667 249.5,-291.3333 243.8333,-297 238.1667,-297 238.1667,-297 199.8333,-297 199.8333,-297 194.1667,-297 188.5,-291.3333 188.5,-285.6667 188.5,-285.6667 188.5,-274.3333 188.5,-274.3333 188.5,-268.6667 194.1667,-263 199.8333,-263"/>
</g>
<!-- S_WAIT_PIPE -->
<g id="node3" class="node state regular">
<title>S_WAIT_PIPE</title>
<polygon fill="#ffffff" fill-opacity="0.003922" stroke="transparent" stroke-width="2" points="223,-216 123,-216 123,-180 223,-180 223,-216"/>
<text text-anchor="start" x="133.6586" y="-194.2" font-family="Helvetica,sans-Serif" font-size="12.00" fill="#000000">S_WAIT_PIPE</text>
<path fill="none" stroke="#000000" stroke-width="2" d="M135.3333,-181C135.3333,-181 210.6667,-181 210.6667,-181 216.3333,-181 222,-186.6667 222,-192.3333 222,-192.3333 222,-203.6667 222,-203.6667 222,-209.3333 216.3333,-215 210.6667,-215 210.6667,-215 135.3333,-215 135.3333,-215 129.6667,-215 124,-209.3333 124,-203.6667 124,-203.6667 124,-192.3333 124,-192.3333 124,-186.6667 129.6667,-181 135.3333,-181"/>
</g>
<!-- S_IDLE&#45;&gt;S_WAIT_PIPE -->
<g id="edge1" class="edge transition">
<title>S_IDLE&#45;&gt;S_WAIT_PIPE</title>
<path fill="none" stroke="#000000" d="M208.7911,-261.8015C202.7165,-250.973 194.8965,-237.033 188.1164,-224.9466"/>
<polygon fill="#000000" stroke="#000000" points="191.1254,-223.1566 183.1804,-216.1476 185.0204,-226.5814 191.1254,-223.1566"/>
<text text-anchor="start" x="199" y="-236" font-family="Helvetica,sans-Serif" font-size="10.00" fill="#000000">start_i = &#39;1&#39; &#160;&#160;</text>
</g>
<!-- S_COMPUTE -->
<g id="node4" class="node state regular">
<title>S_COMPUTE</title>
<polygon fill="#ffffff" fill-opacity="0.003922" stroke="transparent" stroke-width="2" points="221,-134 125,-134 125,-98 221,-98 221,-134"/>
<text text-anchor="start" x="135.6674" y="-112.2" font-family="Helvetica,sans-Serif" font-size="12.00" fill="#000000">S_COMPUTE</text>
<path fill="none" stroke="#000000" stroke-width="2" d="M137.3333,-99C137.3333,-99 208.6667,-99 208.6667,-99 214.3333,-99 220,-104.6667 220,-110.3333 220,-110.3333 220,-121.6667 220,-121.6667 220,-127.3333 214.3333,-133 208.6667,-133 208.6667,-133 137.3333,-133 137.3333,-133 131.6667,-133 126,-127.3333 126,-121.6667 126,-121.6667 126,-110.3333 126,-110.3333 126,-104.6667 131.6667,-99 137.3333,-99"/>
</g>
<!-- S_WAIT_PIPE&#45;&gt;S_COMPUTE -->
<g id="edge2" class="edge transition">
<title>S_WAIT_PIPE&#45;&gt;S_COMPUTE</title>
<path fill="none" stroke="#000000" d="M122.8467,-189.3662C94.5056,-183.3535 63.0813,-174.3775 54.58,-163 35.438,-137.3818 75.6888,-125.709 114.3519,-120.4011"/>
<polygon fill="#000000" stroke="#000000" points="115.1424,-123.8299 124.6353,-119.1252 114.2804,-116.8832 115.1424,-123.8299"/>
<text text-anchor="start" x="54" y="-154" font-family="Helvetica,sans-Serif" font-size="10.00" fill="#000000">not (delay_cnt &lt; 2) &#160;&#160;</text>
</g>
<!-- S_COMPUTE&#45;&gt;S_WAIT_PIPE -->
<g id="edge4" class="edge transition">
<title>S_COMPUTE&#45;&gt;S_WAIT_PIPE</title>
<path fill="none" stroke="#000000" d="M173,-134.1476C173,-144.5421 173,-157.816 173,-169.5658"/>
<polygon fill="#000000" stroke="#000000" points="169.5001,-169.8015 173,-179.8015 176.5001,-169.8016 169.5001,-169.8015"/>
<text text-anchor="start" x="173" y="-154" font-family="Helvetica,sans-Serif" font-size="10.00" fill="#000000">not (escaped = &#39;1&#39; or count = MAX_ITER) &#160;&#160;</text>
</g>
<!-- S_FINISH -->
<g id="node5" class="node state regular">
<title>S_FINISH</title>
<polygon fill="#ffffff" fill-opacity="0.003922" stroke="transparent" stroke-width="2" points="311,-52 235,-52 235,-16 311,-16 311,-52"/>
<text text-anchor="start" x="245.9988" y="-30.2" font-family="Helvetica,sans-Serif" font-size="12.00" fill="#000000">S_FINISH</text>
<path fill="none" stroke="#000000" stroke-width="2" d="M247.3333,-17C247.3333,-17 298.6667,-17 298.6667,-17 304.3333,-17 310,-22.6667 310,-28.3333 310,-28.3333 310,-39.6667 310,-39.6667 310,-45.3333 304.3333,-51 298.6667,-51 298.6667,-51 247.3333,-51 247.3333,-51 241.6667,-51 236,-45.3333 236,-39.6667 236,-39.6667 236,-28.3333 236,-28.3333 236,-22.6667 241.6667,-17 247.3333,-17"/>
</g>
<!-- S_COMPUTE&#45;&gt;S_FINISH -->
<g id="edge3" class="edge transition">
<title>S_COMPUTE&#45;&gt;S_FINISH</title>
<path fill="none" stroke="#000000" d="M195.1932,-97.8015C209.1756,-86.336 227.4119,-71.3822 242.7147,-58.8339"/>
<polygon fill="#000000" stroke="#000000" points="245.3554,-61.1949 250.8688,-52.1476 240.9168,-55.782 245.3554,-61.1949"/>
<text text-anchor="start" x="229" y="-72" font-family="Helvetica,sans-Serif" font-size="10.00" fill="#000000">escaped = &#39;1&#39; or count = MAX_ITER &#160;&#160;</text>
</g>
<!-- S_FINISH&#45;&gt;S_IDLE -->
<g id="edge5" class="edge transition">
<title>S_FINISH&#45;&gt;S_IDLE</title>
<path fill="none" stroke="#000000" d="M311.3245,-38.101C351.2364,-43.4658 408,-54.6695 408,-75 408,-239 408,-239 408,-239 408,-253.9745 316.2186,-267.9889 260.5737,-275.1095"/>
<polygon fill="#000000" stroke="#000000" points="260.1204,-271.6389 250.6344,-276.3575 260.9925,-278.5843 260.1204,-271.6389"/>
<text text-anchor="middle" x="409.3895" y="-154" font-family="Helvetica,sans-Serif" font-size="10.00" fill="#000000"> </text>
</g>
</g>
</svg>
